<svg xmlns="http://www.w3.org/2000/svg" width="636.607" height="745.627" viewBox="0 0 168.436 197.281"><path d="M121.67 0C104.696-.14 75.579 27.207 40.686 88.656c-15.949 11.44-34.49 22.252-40.219 31.55-5.266 8.55 35.711-15.948 35.711-15.948s-26.35 67.26-16.642 71.768c9.708 4.507 33.782-28.91 55.127-57.9 6.452-8.762 35.445 22.074 41.951 29.123 29.542 32.01 36.405 51.66 44.032 49.927 18.669-4.243-13.868-40.219-23.922-51.66-10.055-11.442-36.835-36.445-46.46-45.766 7.281-9.014 27.044-45.765 27.044-45.765s25.656-45.072 10.055-52.7C125.656.45 123.754.018 121.67.001zM96.333 42.952c.438 0 .844.09 1.213.285 5.894 3.12-5.894 25.656-5.894 25.656s-13.176 24.8-22.883 22.19c-7.525-2.023 7.28-27.39 7.28-27.39s13.713-20.722 20.284-20.74z"/><path d="M123.787 0C106.812-.14 77.695 27.207 42.802 88.656c-15.948 11.44-34.49 22.252-40.218 31.55-5.267 8.55 35.711-15.948 35.711-15.948s-26.35 67.26-16.642 71.768c9.708 4.507 33.781-28.91 55.127-57.9 6.451-8.762 35.445 22.074 41.951 29.123 29.542 32.01 36.404 51.66 44.032 49.927 18.668-4.243-13.868-40.219-23.923-51.66-10.054-11.442-36.835-36.445-46.459-45.766 7.281-9.014 27.044-45.765 27.044-45.765s25.656-45.072 10.054-52.7C127.773.45 125.871.018 123.787.001zM98.45 42.952a2.54 2.54 0 011.212.285c5.894 3.12-5.894 25.656-5.894 25.656s-13.175 24.8-22.883 22.19c-7.524-2.023 7.282-27.39 7.282-27.39S91.879 42.97 98.45 42.952z" fill="#9b78de"/></svg>