<svg xmlns="http://www.w3.org/2000/svg" viewBox="0 0 166.584 197.545" height="746.626" width="629.607"><path d="M121.802.133C104.828-.01 75.711 27.338 40.818 88.787 24.869 100.228 6.328 111.039.6 120.337c-5.267 8.55 35.71-15.948 35.71-15.948S9.96 171.65 19.669 176.157c9.708 4.507 33.782-28.91 55.127-57.9 6.452-8.762 35.446 22.074 41.952 29.124 29.542 32.01 36.404 51.66 44.032 49.926 18.668-4.243-13.868-40.219-23.923-51.66-10.054-11.441-36.835-36.445-46.46-45.765 7.282-9.015 27.044-45.766 27.044-45.766s25.657-45.072 10.055-52.7C125.788.582 123.887.15 121.802.133zm-25.337 42.95c.438 0 .845.09 1.213.285 5.894 3.12-5.894 25.657-5.894 25.657S78.609 93.823 68.9 91.215c-7.524-2.023 7.281-27.391 7.281-27.391s13.713-20.721 20.283-20.74z" fill="#fff" stroke="#000" stroke-width=".26458"/></svg>